<svg width="360" height="120" viewBox="0 0 360 120" fill="none" xmlns="http://www.w3.org/2000/svg">
<g clip-path="url(#clip0)">
<rect width="360" height="120" fill="url(#paint0_linear)"/>
<g clip-path="url(#clip1)">
<path d="M133.908 29.0752C125.249 29.0752 119.329 35.3781 119.329 43.5447C119.329 51.7113 125.139 58.0142 134.512 58.0142C137.042 58.0673 139.548 57.5128 141.819 56.3972C142.421 56.0918 142.93 55.6293 143.291 55.0586C143.653 54.4879 143.853 53.8302 143.871 53.1549C143.89 52.4797 143.725 51.8121 143.396 51.2226C143.066 50.6331 142.583 50.1437 141.998 49.806C141.447 49.4872 140.824 49.3151 140.188 49.3062C139.552 49.2972 138.924 49.4517 138.365 49.7549C137.211 50.3666 135.924 50.6812 134.618 50.6702C131.603 50.6702 129.082 49.6842 128.041 46.8336H144.57C145.433 46.8336 146.261 46.491 146.871 45.8809C147.482 45.2708 147.826 44.4433 147.826 43.5801V43.5455C147.831 35.2705 141.911 29.0752 133.908 29.0752ZM127.882 40.6918C128.649 37.8971 130.732 36.3618 133.853 36.3618C135.176 36.2865 136.483 36.6791 137.546 37.4708C138.608 38.2625 139.358 39.4028 139.664 40.6918H127.882Z" fill="white"/>
<path d="M207.291 30.6094H206.704C204.587 30.6094 202.871 32.3253 202.871 34.442V54.1035C202.871 56.2202 204.587 57.9361 206.704 57.9361H207.291C209.407 57.9361 211.123 56.2202 211.123 54.1035V34.442C211.123 32.3253 209.407 30.6094 207.291 30.6094Z" fill="white"/>
<path d="M228.453 37.0317C229.792 37.0048 231.104 37.411 232.194 38.1898C232.837 38.6645 233.605 38.9405 234.402 38.9838C235.2 39.0271 235.993 38.8357 236.684 38.4334C237.277 38.092 237.775 37.6075 238.133 37.0242C238.491 36.4409 238.697 35.7773 238.733 35.0938C238.769 34.4103 238.633 33.7288 238.338 33.1113C238.043 32.4938 237.598 31.96 237.044 31.5585C234.562 29.8102 231.599 28.8766 228.563 28.8871C226.647 28.873 224.747 29.2383 222.973 29.9618C221.198 30.6854 219.584 31.7529 218.224 33.1029C216.864 34.4529 215.785 36.0587 215.048 37.8278C214.312 39.5968 213.933 41.4942 213.933 43.4104C213.933 45.3267 214.312 47.224 215.048 48.9931C215.785 50.7621 216.864 52.3679 218.224 53.7179C219.584 55.068 221.198 56.1355 222.973 56.859C224.747 57.5826 226.647 57.9478 228.563 57.9338C231.618 57.9538 234.601 57.009 237.088 55.2341C237.638 54.8299 238.079 54.2944 238.37 53.6762C238.661 53.0581 238.793 52.3769 238.754 51.6949C238.714 51.0128 238.505 50.3514 238.144 49.771C237.784 49.1906 237.284 48.7096 236.69 48.3717C236.004 47.9755 235.216 47.7881 234.425 47.8326C233.634 47.8771 232.873 48.1516 232.235 48.6224C231.133 49.4088 229.807 49.8191 228.453 49.7923C224.877 49.7923 222.237 47.2065 222.237 43.4108C222.237 39.6151 224.877 37.0317 228.453 37.0317Z" fill="white"/>
<path d="M259.164 42.4975L263.501 36.5396C263.921 35.9634 264.173 35.2823 264.229 34.5719C264.285 33.8614 264.144 33.1491 263.821 32.5139C263.498 31.8786 263.005 31.3452 262.398 30.9726C261.79 30.5999 261.091 30.4026 260.379 30.4024C259.751 30.4026 259.132 30.5558 258.577 30.8486C258.022 31.1414 257.546 31.5651 257.191 32.083L250.091 42.4465V23.6195C250.091 23.0784 249.985 22.5427 249.778 22.0428C249.571 21.543 249.267 21.0888 248.885 20.7063C248.502 20.3237 248.048 20.0203 247.548 19.8133C247.048 19.6064 246.512 19.4999 245.971 19.5C245.43 19.4999 244.894 19.6064 244.394 19.8134C243.895 20.0204 243.44 20.3238 243.058 20.7063C242.675 21.0889 242.372 21.543 242.165 22.0429C241.958 22.5427 241.851 23.0784 241.852 23.6195V53.8164C241.851 54.3574 241.958 54.8932 242.165 55.393C242.372 55.8929 242.675 56.3471 243.058 56.7298C243.44 57.1124 243.895 57.4159 244.394 57.623C244.894 57.83 245.43 57.9366 245.971 57.9366C247.064 57.9366 248.112 57.5025 248.885 56.7298C249.657 55.9571 250.091 54.9091 250.091 53.8164V46.3797C254.565 48.2117 258.27 51.5296 260.582 55.7743C260.919 56.4033 261.42 56.9295 262.031 57.2976C262.642 57.6656 263.342 57.8616 264.055 57.8651C264.737 57.8652 265.407 57.6882 266 57.3515C266.592 57.0149 267.088 56.5301 267.437 55.9446C267.786 55.3591 267.977 54.6929 267.992 54.0114C268.006 53.3298 267.843 52.6562 267.519 52.0564C265.478 48.2899 262.624 45.0247 259.164 42.4975Z" fill="white"/>
<path d="M170.285 36.3153C170.279 35.4346 169.963 34.5841 169.392 33.9135C168.768 33.194 167.901 32.7298 166.957 32.61C165.169 32.3261 163.339 32.5157 161.648 33.16C160.377 33.6765 159.237 34.4721 158.314 35.488V34.7211C158.314 33.6309 157.881 32.5853 157.11 31.8144C156.34 31.0434 155.294 30.6104 154.204 30.6104C153.113 30.6104 152.068 31.0434 151.297 31.8144C150.526 32.5853 150.093 33.6309 150.093 34.7211V53.9049C150.093 54.9951 150.526 56.0407 151.297 56.8116C152.068 57.5826 153.113 58.0157 154.204 58.0157C155.294 58.0157 156.34 57.5826 157.11 56.8116C157.881 56.0407 158.314 54.9951 158.314 53.9049V45.6275C158.314 40.4536 162.603 39.7771 166.039 40.0207C166.189 40.0426 166.34 40.0547 166.492 40.0569C166.506 40.0569 166.522 40.0569 166.536 40.0569C167.526 40.0481 168.474 39.6513 169.175 38.9517C169.876 38.2521 170.274 37.3056 170.285 36.3153Z" fill="white"/>
<path d="M208.25 19.5068H205.746C203.97 19.5068 202.53 20.947 202.53 22.7235V25.2268C202.53 27.0033 203.97 28.4434 205.746 28.4434H208.25C210.026 28.4434 211.466 27.0033 211.466 25.2268V22.7235C211.466 20.947 210.026 19.5068 208.25 19.5068Z" fill="white"/>
<path d="M176.44 71.0007C175.346 70.9992 174.297 70.5641 173.524 69.7907C172.751 69.0173 172.315 67.9687 172.314 66.8749V37.9422C172.318 35.589 173.254 33.3333 174.919 31.6698C176.583 30.0063 178.839 29.0708 181.193 29.0685H186.242C189.762 29.054 193.152 30.4016 195.702 32.8293C198.252 35.257 199.764 38.5768 199.922 42.0939C199.973 43.981 199.626 45.8577 198.903 47.6016C198.18 49.3455 197.098 50.9176 195.727 52.2153C194.437 53.494 192.886 54.4787 191.18 55.102C190.097 55.4815 189.311 55.6873 188.55 55.8877C187.701 56.0924 186.867 56.3512 186.051 56.6624C182.412 58.0845 180.567 60.8038 180.567 64.7441V66.8796C180.565 67.9729 180.129 69.0206 179.355 69.7931C178.581 70.5656 177.533 70.9998 176.44 71.0007ZM184.533 37.3066C183.48 37.3076 182.471 37.7261 181.727 38.4703C180.983 39.2145 180.564 40.2235 180.563 41.2759V50.1842L180.852 50.0169C181.556 49.6147 182.288 49.2652 183.043 48.9711C184.16 48.5415 185.303 48.183 186.465 47.8978C187.143 47.7211 187.677 47.5836 188.443 47.3141C189.226 46.9849 189.918 46.4714 190.459 45.8173C191.094 45.0578 191.497 44.1316 191.621 43.1493C191.744 42.1669 191.581 41.1699 191.153 40.2773C190.685 39.3796 189.979 38.6282 189.112 38.1058C188.244 37.5834 187.25 37.3101 186.238 37.316L184.533 37.3066Z" fill="white"/>
<path d="M96.125 57.937C95.0314 57.9358 93.9829 57.5008 93.2096 56.7275C92.4362 55.9542 92.0012 54.9057 92 53.8121V24.8786C92.0025 22.5246 92.9387 20.2678 94.6032 18.6033C96.2677 16.9388 98.5246 16.0026 100.879 16.0001H105.927C109.447 15.9858 112.837 17.3335 115.387 19.7612C117.937 22.1889 119.449 25.5085 119.607 29.0255C119.658 30.9125 119.311 32.7891 118.589 34.533C117.866 36.2768 116.784 37.8487 115.413 39.1462C114.127 40.4295 112.574 41.4149 110.866 42.0328C109.784 42.4131 108.999 42.6182 108.238 42.8185C107.389 43.0235 106.554 43.2825 105.737 43.594C102.098 45.0169 100.253 47.7362 100.253 51.6765V53.8129C100.252 54.9069 99.8161 55.9556 99.0422 56.7289C98.2682 57.5021 97.219 57.9366 96.125 57.937ZM104.218 24.2414C103.165 24.2426 102.156 24.6614 101.411 25.4058C100.667 26.1502 100.248 27.1595 100.247 28.2123V37.1206L100.537 36.954C101.24 36.5512 101.972 36.2017 102.727 35.9083C103.845 35.4778 104.989 35.119 106.152 34.8342C106.828 34.6582 107.361 34.5199 108.127 34.2504C108.91 33.9218 109.602 33.4082 110.144 32.7537C110.779 31.9941 111.182 31.0679 111.305 30.0854C111.429 29.1029 111.266 28.1057 110.838 27.2129C110.37 26.3151 109.663 25.5637 108.796 25.0413C107.928 24.5189 106.934 24.2457 105.921 24.2516L104.218 24.2414Z" fill="white"/>
</g>
<path d="M135.435 88.783H133.18V87.749H131.717V88.783H129.473V89.916H135.435V88.783ZM131.354 92.061C131.354 91.566 131.805 91.302 132.454 91.302C133.103 91.302 133.554 91.566 133.554 92.061C133.554 92.556 133.103 92.82 132.454 92.82C131.805 92.82 131.354 92.556 131.354 92.061ZM134.94 92.061C134.94 90.983 133.917 90.246 132.454 90.246C130.991 90.246 129.968 90.983 129.968 92.061C129.968 93.139 130.991 93.865 132.454 93.865C133.917 93.865 134.94 93.139 134.94 92.061ZM134.148 96.868C132.872 96.868 132.19 96.637 132.19 96.153C132.19 95.658 132.872 95.438 134.148 95.438C135.424 95.438 136.106 95.658 136.106 96.153C136.106 96.637 135.424 96.868 134.148 96.868ZM134.148 94.349C132.058 94.349 130.749 95.02 130.749 96.153C130.749 97.275 132.058 97.957 134.148 97.957C136.238 97.957 137.547 97.275 137.547 96.153C137.547 95.02 136.238 94.349 134.148 94.349ZM138.746 90.455V89.267H137.448V87.826H135.996V94.239H137.448V92.655H138.746V91.478H137.448V90.455H138.746ZM139.878 88.86V90.015H143.255C143.046 92.259 141.924 93.843 139.339 95.086L140.098 96.23C143.695 94.492 144.74 91.962 144.74 88.86H139.878ZM146.291 87.804V97.935H147.754V87.804H146.291Z" fill="white"/>
<path d="M155.81 90.131H150.57V92.051H156.78V91.461H151.38V90.691H156.62V88.821H150.55V89.401H155.81V90.131ZM151.33 95.991H156.65V94.081H150.5V94.671H155.84V95.421H150.52V97.411H156.93V96.821H151.33V95.991ZM149.53 92.731V93.351H157.66V92.731H149.53Z" fill="white"/>
<path d="M214.16 95.06C213.35 95.06 212.76 94.48 212.76 93.68C212.76 92.87 213.35 92.29 214.16 92.29C214.98 92.29 215.57 92.87 215.57 93.68C215.57 94.48 214.98 95.06 214.16 95.06ZM214.16 91.61C212.9 91.61 211.99 92.47 211.99 93.68C211.99 94.9 212.9 95.74 214.16 95.74C215.44 95.74 216.35 94.9 216.35 93.68C216.35 92.47 215.44 91.61 214.16 91.61ZM214.56 88.88H213.74V90.21H211.48V90.87H216.77V90.21H214.56V88.88ZM219.91 92.46H218.44V88.78H217.62V97.74H218.44V93.15H219.91V92.46ZM221.679 90.31H225.029V89.63H220.859V95.52H221.569C223.259 95.52 224.439 95.46 225.809 95.2L225.719 94.52C224.419 94.75 223.269 94.82 221.679 94.82V90.31ZM228.859 92.31H227.379V88.77H226.559V97.76H227.379V92.99H228.859V92.31Z" fill="white"/>
<path d="M134 86C134.552 86 135 85.5523 135 85C135 84.4477 134.552 84 134 84C133.448 84 133 84.4477 133 85C133 85.5523 133.448 86 134 86Z" fill="white"/>
<path d="M144 86C144.552 86 145 85.5523 145 85C145 84.4477 144.552 84 144 84C143.448 84 143 84.4477 143 85C143 85.5523 143.448 86 144 86Z" fill="white"/>
<mask id="mask0" mask-type="alpha" maskUnits="userSpaceOnUse" x="161" y="76" width="48" height="30">
<rect x="161" y="76" width="48" height="30" fill="#C4C4C4"/>
</mask>
<g mask="url(#mask0)">
<path d="M178.687 84.0293H178.019C177.051 84.0293 176.267 84.8161 176.267 85.7867V96.1304C176.267 97.1009 177.051 97.8877 178.019 97.8877H178.687C179.654 97.8877 180.438 97.1009 180.438 96.1304V85.7867C180.438 84.8161 179.654 84.0293 178.687 84.0293Z" fill="white"/>
<path d="M189.121 87.2853C189.797 87.2722 190.459 87.4779 191.009 87.8718C191.334 88.1126 191.723 88.2527 192.126 88.2747C192.529 88.2968 192.93 88.1998 193.28 87.9958C193.579 87.8225 193.831 87.5768 194.012 87.2809C194.193 86.985 194.297 86.6484 194.315 86.3018C194.333 85.9552 194.265 85.6095 194.116 85.2963C193.966 84.9831 193.741 84.7124 193.461 84.5087C192.207 83.6228 190.709 83.1501 189.174 83.1563C187.227 83.1563 185.36 83.9323 183.984 85.3135C182.607 86.6947 181.833 88.568 181.833 90.5213C181.833 92.4746 182.607 94.3479 183.984 95.7292C185.36 97.1104 187.227 97.8863 189.174 97.8863C190.719 97.8967 192.227 97.4179 193.484 96.5181C193.763 96.313 193.985 96.0414 194.132 95.7278C194.279 95.4143 194.346 95.0688 194.326 94.7229C194.306 94.3769 194.2 94.0415 194.018 93.7471C193.836 93.4528 193.583 93.2087 193.283 93.0374C192.936 92.8363 192.538 92.7413 192.138 92.7639C191.738 92.7865 191.353 92.9257 191.031 93.1645C190.474 93.5632 189.803 93.7712 189.119 93.7574C188.264 93.7574 187.443 93.4163 186.838 92.8093C186.233 92.2023 185.893 91.379 185.893 90.5205C185.893 89.6621 186.233 88.8388 186.838 88.2317C187.443 87.6247 188.264 87.2837 189.119 87.2837L189.121 87.2853Z" fill="white"/>
<path d="M204.533 90.0572L206.726 87.0351C206.937 86.7428 207.065 86.3975 207.093 86.0372C207.122 85.677 207.05 85.3158 206.887 84.9938C206.723 84.6717 206.474 84.4012 206.167 84.2122C205.86 84.0233 205.507 83.9232 205.147 83.923C204.83 83.9229 204.517 84.0005 204.236 84.1491C203.956 84.2977 203.715 84.5127 203.536 84.7756L199.949 90.0295V80.4864C199.949 79.9323 199.729 79.401 199.339 79.0093C198.948 78.6175 198.418 78.3975 197.866 78.3975C197.593 78.3974 197.322 78.4513 197.069 78.5562C196.816 78.6612 196.587 78.815 196.393 79.009C196.2 79.203 196.046 79.4333 195.942 79.6868C195.837 79.9403 195.783 80.212 195.783 80.4864V95.8022C195.783 96.0766 195.837 96.3484 195.942 96.602C196.046 96.8556 196.2 97.086 196.393 97.2801C196.586 97.4742 196.816 97.6281 197.069 97.7331C197.322 97.838 197.593 97.892 197.866 97.8919C198.418 97.8919 198.948 97.6718 199.339 97.2799C199.73 96.888 199.949 96.3564 199.949 95.8022V92.0317C202.21 92.9607 204.083 94.6434 205.252 96.7961C205.422 97.115 205.675 97.3819 205.984 97.5685C206.293 97.7551 206.647 97.8546 207.007 97.8564C207.352 97.8564 207.69 97.7666 207.99 97.5959C208.29 97.4252 208.54 97.1794 208.716 96.8825C208.893 96.5856 208.99 96.2478 208.997 95.9022C209.004 95.5566 208.922 95.215 208.758 94.9109C207.727 92.9983 206.283 91.3403 204.533 90.0572Z" fill="white"/>
<path d="M179.142 78.3984H177.564C176.752 78.3984 176.094 79.0587 176.094 79.8732V81.4561C176.094 82.2705 176.752 82.9308 177.564 82.9308H179.142C179.954 82.9308 180.612 82.2705 180.612 81.4561V79.8732C180.612 79.0587 179.954 78.3984 179.142 78.3984Z" fill="white"/>
<path d="M163.215 104.424C162.662 104.423 162.132 104.203 161.741 103.81C161.35 103.418 161.13 102.886 161.13 102.331V87.6582C161.132 86.4653 161.605 85.3217 162.445 84.4781C163.286 83.6346 164.426 83.1599 165.615 83.1583H168.167C169.947 83.151 171.66 83.8344 172.949 85.0655C174.238 86.2966 175.002 87.9801 175.082 89.7638C175.107 90.7209 174.931 91.6725 174.565 92.5567C174.199 93.4409 173.651 94.2378 172.958 94.8953C172.306 95.5442 171.522 96.0438 170.66 96.3598C170.109 96.5525 169.716 96.6559 169.331 96.7546C168.902 96.8595 168.48 96.9913 168.068 97.1493C167.22 97.4309 166.489 97.9853 165.988 98.7264C165.487 99.4676 165.243 100.354 165.296 101.248V102.327C165.296 102.882 165.077 103.414 164.687 103.807C164.297 104.2 163.768 104.422 163.215 104.424ZM167.307 87.3361C166.775 87.337 166.265 87.5494 165.889 87.9268C165.513 88.3041 165.302 88.8157 165.301 89.3493V93.8675L165.448 93.783C165.803 93.5787 166.173 93.4011 166.555 93.2517C167.12 93.0343 167.698 92.8526 168.286 92.7077C168.629 92.6185 168.899 92.5498 169.285 92.4117C169.682 92.2454 170.033 91.9848 170.308 91.6522C170.629 91.2669 170.833 90.7971 170.895 90.2989C170.957 89.8007 170.875 89.2952 170.658 88.8425C170.421 88.3877 170.064 88.0071 169.626 87.7425C169.188 87.4779 168.685 87.3395 168.174 87.3425L167.307 87.3361Z" fill="white"/>
</g>
</g>
<defs>
<linearGradient id="paint0_linear" x1="0" y1="0" x2="352.069" y2="140.828" gradientUnits="userSpaceOnUse">
<stop stop-color="#FFADCE"/>
<stop offset="0.5" stop-color="#B990E6"/>
<stop offset="1" stop-color="#91EBEB"/>
</linearGradient>
<clipPath id="clip0">
<rect width="360" height="121" fill="white"/>
</clipPath>
<clipPath id="clip1">
<rect width="176" height="55" fill="white" transform="translate(92 16)"/>
</clipPath>
</defs>
</svg>
